<svg xmlns="http://www.w3.org/2000/svg" version="1.1" viewBox="0 0 25 25" aria-label="instagram" class="" name="instagram"><defs><linearGradient id="linearGradient-1" x1="50%" x2="50%" y1="99.7089109%" y2="0.776721582%"><stop offset="0%" stop-color="#E09B3D"></stop><stop offset="30%" stop-color="#C74C4D"></stop><stop offset="60%" stop-color="#C21975"></stop><stop offset="100%" stop-color="#7024C4"></stop></linearGradient></defs><g fill="currentColor" fill-rule="evenodd" stroke="none" stroke-width="1"><g fill="currentColor" fill-rule="nonzero" transform="translate(-1168.000000, -232.000000)"><g><g><g transform="translate(1160.000000, 224.000000)"><g id="instagram" transform="translate(8.000000, 8.000000)"><path d="M17.5523652,0 L7.44763481,0 C3.34099166,0 0,3.34099166 0,7.44763481 L0,17.5523652 C0,21.6590083 3.34099166,25 7.44763481,25 L17.5523652,25 C21.6590083,25 25,21.6590083 25,17.5523652 L25,7.44763481 C24.9999546,3.34099166 21.658963,0 17.5523652,0 Z M22.4850009,17.5523652 C22.4850009,20.2765619 20.2765619,22.4850009 17.5523652,22.4850009 L7.44763481,22.4850009 C4.72343812,22.4850009 2.51499907,20.2765619 2.51499907,17.5523652 L2.51499907,7.44763481 C2.51499907,4.72339275 4.72343812,2.51499907 7.44763481,2.51499907 L17.5523652,2.51499907 C20.2765619,2.51499907 22.4850009,4.72339275 22.4850009,7.44763481 L22.4850009,17.5523652 Z M12.4413146,5.98591549 C8.8818018,5.98591549 5.98591549,8.88181196 5.98591549,12.4412919 C5.98591549,16.0007719 8.8818018,18.8967136 12.4413146,18.8967136 C16.0008273,18.8967136 18.8967136,16.0008172 18.8967136,12.4412919 C18.8967136,8.88176666 16.0008273,5.98591549 12.4413146,5.98591549 Z M12.4413146,16.3858315 C10.2628206,16.3858315 8.49683413,14.6198388 8.49683413,12.4413372 C8.49683413,10.2628356 10.2628659,8.49684294 12.4413146,8.49684294 C14.6198085,8.49684294 16.385795,10.2628356 16.385795,12.4413372 C16.385795,14.6197935 14.6197632,16.3858315 12.4413146,16.3858315 Z M18.8967136,7.62910798 C19.7394016,7.62910798 20.4225352,6.94597438 20.4225352,6.10328638 C20.4225352,5.26059839 19.7394016,4.57746479 18.8967136,4.57746479 C18.0540256,4.57746479 17.370892,5.26059839 17.370892,6.10328638 C17.370892,6.94597438 18.0540256,7.62910798 18.8967136,7.62910798 Z"></path></g></g></g></g></g></g></svg>