<svg viewBox="0 0 13 13" xmlns="http://www.w3.org/2000/svg" aria-label="contact-us" class="" name="contact-us"><path d="M10.944 7.75c-.284-.295-.626-.452-.99-.452-.359 0-.704.154-1 .448l-.924.918c-.076-.041-.152-.079-.225-.117a3.722 3.722 0 0 1-.29-.154c-.866-.548-1.653-1.261-2.407-2.184-.366-.46-.612-.848-.79-1.24.24-.22.462-.446.679-.665.082-.081.163-.166.245-.247.615-.612.615-1.404 0-2.016l-.798-.795c-.09-.09-.185-.183-.272-.276-.176-.18-.36-.367-.55-.542C3.338.148 2.999 0 2.642 0s-.702.149-.995.428l-.006.006-.994.999a2.127 2.127 0 0 0-.635 1.354c-.07.85.181 1.642.374 2.16C.86 6.22 1.568 7.4 2.624 8.665a13.757 13.757 0 0 0 4.584 3.573c.673.317 1.57.693 2.574.757.062.003.126.006.185.006.675 0 1.243-.242 1.687-.722.003-.006.01-.009.012-.015.152-.183.328-.35.512-.527.126-.12.255-.245.38-.376.29-.3.442-.649.442-1.007 0-.361-.155-.708-.45-1L10.944 7.75zm1.047 3.066c-.003 0-.003.003 0 0-.114.122-.231.233-.357.355-.19.18-.383.37-.565.583-.295.314-.643.463-1.1.463-.043 0-.09 0-.134-.003-.869-.056-1.676-.393-2.282-.682a12.986 12.986 0 0 1-4.317-3.366C2.238 6.969 1.57 5.862 1.129 4.674.857 3.95.758 3.384.802 2.851c.03-.34.16-.623.404-.865l.997-.993c.143-.134.295-.207.445-.207.184 0 .333.111.427.204L3.084 1c.178.166.348.338.526.521l.278.283.799.795c.31.308.31.594 0 .902-.085.085-.167.17-.252.25-.246.251-.48.484-.734.711-.006.006-.012.01-.015.015-.251.25-.205.495-.152.661l.009.026c.207.501.5.973.945 1.535l.003.003c.807.99 1.658 1.762 2.597 2.353.12.076.243.137.36.195.105.053.205.102.29.154.011.006.023.015.035.02.1.05.193.074.29.074.242 0 .394-.152.444-.201l1-.996c.1-.1.258-.219.442-.219.181 0 .33.114.421.213l.006.006 1.612 1.604c.301.297.301.603.003.912z" fill="currentColor" fill-rule="nonzero"></path></svg>