<svg viewBox="0 0 25 22" xmlns="http://www.w3.org/2000/svg" aria-label="menu-computers" class="" name="menu-computers"><g fill="currentColor" fill-rule="nonzero"><path d="M23.468 1.564A1.848 1.848 0 0 0 22.113 1H2.919c-.527 0-.98.188-1.355.564A1.848 1.848 0 0 0 1 2.919v13.052c0 .528.188.98.564 1.356.376.376.828.564 1.355.564h6.526v3.07h6.142v-3.07h6.526c.528 0 .98-.188 1.356-.564.376-.376.563-.828.563-1.356V2.92c0-.527-.188-.98-.564-1.355z" stroke="#50545B"></path><path d="M10.142 11.487a.7.7 0 0 1-.892-1.079l5.724-4.73a.7.7 0 1 1 .892 1.079l-5.724 4.73z" fill="currentColor"></path></g></svg>