<svg viewBox="0 0 24 22" xmlns="http://www.w3.org/2000/svg" aria-label="menu-fashion" class="" name="menu-fashion"><path d="M16.913 21H7.31c-.611 0-1.107-.5-1.107-1.114V9.948l-.62.623a1.102 1.102 0 0 1-1.566 0L1.324 7.858a1.12 1.12 0 0 1 0-1.575l4.924-4.957c.24-.242.588-.36.922-.317.046-.006.093-.009.14-.009h1.369c.375 0 .725.192.93.509.435.677 1.417 1.114 2.502 1.114 1.085 0 2.069-.437 2.504-1.114.204-.317.554-.509.93-.509h1.369c.047 0 .093.003.14.009a1.107 1.107 0 0 1 .922.317l4.922 4.957a1.12 1.12 0 0 1 0 1.575l-2.692 2.713a1.104 1.104 0 0 1-1.566 0l-.62-.624v9.939c0 .615-.496 1.114-1.107 1.114z" fill="none" fill-rule="nonzero" stroke="#50545B"></path></svg>