<svg xmlns="http://www.w3.org/2000/svg" fill="currentColor" viewBox="0 0 24 28" aria-label="ios-download" class="" name="ios-download"><path d="M20.0449 14.8775C20.0077 11.3315 23.089 9.6309 23.2266 9.54641C21.4953 7.13961 18.7983 6.8099 17.8372 6.77178C15.542 6.55101 13.3586 8.05552 12.1937 8.05552C11.0318 8.05552 9.23429 6.80443 7.33072 6.8373C4.82897 6.87263 2.5222 8.2192 1.23402 10.3477C-1.36524 14.6324 0.568375 20.98 3.10179 24.455C4.33971 26.156 5.81584 28.0665 7.75395 27.9982C9.62033 27.9275 10.3261 26.8509 12.5826 26.8509C14.839 26.8509 15.4733 27.9982 17.4484 27.963C19.4568 27.9276 20.7292 26.2295 21.9586 24.5233C23.3801 22.5499 23.9655 20.6394 24 20.5414C23.9554 20.522 20.0837 19.113 20.0449 14.8775ZM16.3336 4.4713C17.3623 3.28573 18.0566 1.6409 17.8672 0C16.3855 0.0573124 14.5895 0.937616 13.5264 2.12051C12.5725 3.16985 11.7375 4.84465 11.9612 6.45274C13.6154 6.57535 15.3039 5.65419 16.3336 4.4713Z"></path></svg>