<svg viewBox="0 0 22 22" xmlns="http://www.w3.org/2000/svg" aria-label="menu-deals" class="" name="menu-deals"><path d="M1 13.016L8.984 21 21 8.984V1h-7.984L1 13.016zM17.008 6.4a1.409 1.409 0 1 1 0-2.818 1.409 1.409 0 0 1 0 2.818zm-9.002 6.145a1.057 1.057 0 1 1 0-2.114 1.057 1.057 0 0 1 0 2.114zm5.01 0a1.057 1.057 0 1 1 0-2.114 1.057 1.057 0 0 1 0 2.114zm-2.505 2.975V7.497v8.024z" fill="none" fill-rule="evenodd" stroke="#50545B" stroke-linecap="round" stroke-linejoin="round" stroke-width="1.2"></path></svg>