<svg viewBox="0 0 21 18" xmlns="http://www.w3.org/2000/svg" aria-label="pickup-store-outline" class="" name="pickup-store-outline"><path d="M14.647 9.802h-2.801c-.767 0-1.39.624-1.39 1.39v2.149c0 .767.623 1.39 1.39 1.39h2.8c.768 0 1.391-.623 1.391-1.39v-2.148c0-.767-.623-1.39-1.39-1.39zm5.969-3.905a2.965 2.965 0 0 1-1.778 2.713c.004.017.004.034.004.055v8.83a.507.507 0 0 1-.505.505H2.275a.507.507 0 0 1-.506-.505V8.602A2.957 2.957 0 0 1 0 5.897c0-.088.025-.172.067-.248L3.13.257A.5.5 0 0 1 3.568 0h13.476c.18 0 .35.101.438.257l3.067 5.392a.47.47 0 0 1 .067.248zM3.863 1.015L1.47 5.232h17.676l-2.397-4.217H3.863zm10.81 5.224h-3.826a1.942 1.942 0 0 0 3.825 0zm-4.9 0h-3.83c.165.91.961 1.6 1.918 1.6.956 0 1.752-.69 1.912-1.6zm-8.728 0c.16.91.956 1.605 1.912 1.6.956 0 1.757-.69 1.917-1.6h-3.83zm7.447 10.75h.005v-5.455a.72.72 0 0 0-.72-.72h-1.47a.72.72 0 0 0-.721.72v5.455h2.906zm6.534-3.648a.38.38 0 0 1-.38.38h-2.8a.38.38 0 0 1-.38-.38v-2.148c0-.211.173-.38.38-.38h2.8c.211 0 .38.173.38.38v2.148zm2.806 3.648V8.85c-.06 0-.114.005-.173.005-1.02 0-1.921-.518-2.452-1.306a2.946 2.946 0 0 1-4.895 0 2.953 2.953 0 0 1-4.903 0 2.953 2.953 0 0 1-2.452 1.306c-.059 0-.118 0-.177-.005v8.143h1.79v-5.46c0-.955.78-1.73 1.732-1.73h1.47c.956 0 1.731.779 1.731 1.73v5.456h8.329zm-.173-9.145c.956 0 1.752-.695 1.916-1.601h-3.829c.16.91.957 1.6 1.913 1.6z" fill="currentColor" fill-rule="nonzero"></path></svg>